PathFileType	4	(X/Y/Z)	Patient4_TMGait_0pt3_02_right_19.trc.trc
DataRate	CameraRate	NumFrames	NumMarkers	Units	OrigDataRate	OrigDataStartFrame	OrigNumFrames
47.619047619048	47.619047619048	4	33	mm	47.619047619048	53	       141
Frame#	Time	Sacral			L.Shoulder			Chest			R.Shoulder			Neck			R.ASIS			L.ASIS			R.Thigh.Superior			R.Thigh.Lateral			R.Thigh.Inferior			R.Patella			L.Thigh.Superior			L.Thigh.Lateral			L.Thigh.Inferior			L.Patella			L.Shank.Superior			L.Shank.Lateral			L.Shank.Inferior			R.Shank.Superior			R.Shank.Lateral			R.Shank.Inferior			R.Heel			R.Midfoot.Superior			R.Midfoot.Lateral			R.Toe			L.Heel			L.Midfoot.Lateral			L.Midfoot.Superior			L.Toe			L.Elbow			L.Wrist			R.Elbow			R.Wrist			
		X1	Y1	Z1	X2	Y2	Z2	X3	Y3	Z3	X4	Y4	Z4	X5	Y5	Z5	X6	Y6	Z6	X7	Y7	Z7	X8	Y8	Z8	X9	Y9	Z9	X10	Y10	Z10	X11	Y11	Z11	X12	Y12	Z12	X13	Y13	Z13	X14	Y14	Z14	X15	Y15	Z15	X16	Y16	Z16	X17	Y17	Z17	X18	Y18	Z18	X19	Y19	Z19	X20	Y20	Z20	X21	Y21	Z21	X22	Y22	Z22	X23	Y23	Z23	X24	Y24	Z24	X25	Y25	Z25	X26	Y26	Z26	X27	Y27	Z27	X28	Y28	Z28	X29	Y29	Z29	X30	Y30	Z30	X31	Y31	Z31	X32	Y32	Z32	X33	Y33	Z33	

53	37.092000000000	722.142319318493	985.227989200866	596.041284461195	882.119596904820	1422.839679317499	406.312170883661	995.298389608962	1352.587758762041	559.220253911232	924.634996074488	1422.715345913224	739.985450845483	878.702779134666	1482.902847165615	566.211641019989	963.633973892359	932.543674352995	694.914699237738	925.502136447234	951.677418788459	423.363622324123	1012.327442250519	736.046110681492	655.014372452120	939.964070054222	616.578646754863	708.482747253884	1018.183906891274	573.904702302851	624.280068269286	1021.696533549218	478.219912828735	627.110502411015	1016.398211590112	770.388779514301	442.865668019153	970.693807389138	643.938888915562	362.807554411187	1079.368464742972	584.574954915191	419.235576939838	1095.147526222869	497.504591919642	405.123825813995	1034.327485305852	429.049916926283	395.542237884633	894.640578748125	371.378129097400	362.096012182110	909.817274552221	236.986311277012	400.533412218606	978.092220931421	390.494895746333	625.895917397482	892.124657607278	292.731608701407	680.218306713400	920.133849418007	199.015456160639	609.410106331371	766.995629736057	43.857506496410	569.226482372945	939.639529419957	96.557574051438	606.482844563237	849.959839738700	37.170043074330	643.972083799376	1058.480913982920	42.785651703288	633.677347352592	741.431054256847	138.513206931563	458.818164171665	788.780652537061	114.668371736149	364.232806846800	893.088121156728	136.577704887645	370.094786453910	978.043219688789	43.872598521367	312.029635480870	814.844392196952	1074.823224050617	294.679696377979	820.493060967702	814.301158026492	291.651264533556	930.427836711781	1068.591189081602	854.979294400612	1107.109273971158	880.030742230890	837.363423385099	
54	37.113000000000	720.745718504777	984.400365753370	598.839343246294	878.896928820183	1421.475029653243	406.773025330566	994.228334822846	1351.212769403987	558.121371058062	926.432925072720	1421.870452526248	739.795627837108	878.004003111526	1481.911306623658	566.422643675024	963.146788073517	931.431161227848	695.207306084501	922.448265367101	950.889116570051	424.036600417294	1011.090962877625	734.855883525749	654.615515158379	939.218859512489	615.282725122698	708.487579435040	1016.534156069522	572.715765166161	623.379840430647	1019.829867009035	476.748646809237	625.918811339386	1014.429803645657	771.223294395193	443.649778622127	970.019117379942	644.598838958624	363.333192401738	1078.901205728557	586.374463891216	419.977178448746	1096.837039141095	500.954602768898	405.648462687524	1040.026232360101	430.980269045990	395.088230415187	904.852292043041	364.711624232073	360.424103000396	928.952132185603	231.091336427407	397.999301729520	975.429407860523	389.146484610108	624.901825844250	889.085823223443	291.996346825425	679.746528927318	915.403797917341	198.156601063142	608.672723263269	760.734746503904	43.922759316766	569.198550046819	933.267073486877	96.267577094970	606.028651065790	843.690286770876	37.228057086257	643.928648761700	1052.226925074067	42.441696025140	633.739715361479	767.477237312992	119.852686217591	454.610810630473	817.085829497647	101.098254583751	359.936505047512	919.561555734031	130.534784869433	366.613220602530	1011.539891044284	45.446422469771	307.785565073757	797.764790394738	1076.683924100375	296.475506102111	789.760711258769	816.073104070884	294.945929972583	946.233515969648	1068.287915874259	854.705829156302	1134.445970782277	892.519247181314	831.703308410409	
55	37.134000000000	719.297776404291	983.967440372247	601.362405188085	875.482184183722	1420.585673734960	407.201068032146	993.044480008330	1350.205744349905	556.817547652793	928.211042947180	1421.315960891650	739.388168135609	877.185156815963	1481.241274533573	566.551882192623	962.627684496635	930.495195767006	694.985104138102	919.257098673411	950.535958872829	424.227498420935	1009.460662571109	733.720368291738	653.581623784060	938.031195233269	614.164918742332	708.054453433353	1014.159434009206	571.602106636761	621.887888198890	1017.137843360579	475.494925857386	624.126920362429	1011.917411074440	771.944220506332	444.051432083582	968.402022741286	645.180273519801	363.624806509638	1077.211766280295	587.779065021375	420.578686388550	1097.152410114425	504.256393216692	406.217112981082	1044.607995792294	433.011163167890	394.637423218943	914.882848933061	358.084149457484	358.020733770259	947.879437943067	225.851847150330	395.097007847562	972.154060020785	387.992083017945	623.490608923552	885.756026715322	291.315661393359	679.068247393079	910.443172746405	197.371891232379	607.746128813853	754.456182020637	43.973651149114	569.160008279912	926.859420621035	95.983668859089	605.555456086355	837.407155208687	37.279707738413	643.883519326529	1045.961920394520	42.090686369713	633.782143432087	793.970160740390	102.473825590843	449.217269441952	846.072276927231	88.453174203353	354.949532242475	946.238508921443	125.182799508934	362.956475395873	1044.964372473800	47.731689413710	304.463002794977	781.110392119323	1079.438251464863	298.346858019145	761.769772717782	819.444816338400	298.838147302295	962.518455593559	1069.118112244367	854.148746716679	1162.053943749873	907.770446024969	825.732574300745	
56	37.155000000000	717.847636953147	984.018013007408	603.631238461441	871.868225604615	1420.240220184840	407.575755219521	991.765512625571	1349.664781262182	555.275651980440	930.011597689311	1421.159504888131	738.731378371732	876.256113811776	1480.974456394577	566.577795121817	962.096981446205	929.819893644815	694.268202229501	915.949172970995	950.682027442812	423.958200698770	1007.386617911034	732.691453087410	652.019313853357	936.273800596059	613.307591960894	707.275110318012	1010.969763469364	570.611224844220	619.966632410884	1013.500916570767	474.514412200279	621.928485738661	1008.912330187031	772.637399297633	444.045362667203	965.865485235578	645.764330164720	363.636920210952	1074.390120420863	588.864822182516	420.921380284145	1096.148861938265	507.447702446004	406.734487400612	1048.026074266664	435.221731445729	394.180056644018	924.598600409993	351.849337451854	354.995852464897	966.230653916341	221.626709980941	392.000729080583	968.152031200178	387.099244090809	621.820990740993	881.982789050298	290.746206449928	678.271686298419	905.187788484710	196.719460095309	606.731288570457	748.152084543429	44.014544358076	569.125730876383	920.431819707844	95.734409794232	605.120483136108	831.107616215500	37.321029226874	643.846532848498	1039.680068831119	41.755299722689	633.801682255309	820.388627281430	87.071324920836	442.989872666890	875.175137539126	77.321336388436	349.606323697288	972.586916016455	120.931142206978	359.365168401381	1077.612210693836	50.923818419004	302.315700577224	765.167402181102	1082.973349720549	300.393355779017	736.722046213660	823.963596096319	303.260441659973	979.205501024300	1071.267042279270	853.298636383794	1189.446131547573	925.768696422841	819.493780739208	
